<?xml version="1.0" standalone="no"?>
<!DOCTYPE svg PUBLIC "-//W3C//DTD SVG 1.1//EN" "http://www.w3.org/Graphics/SVG/1.1/DTD/svg11.dtd">
<svg xmlns="http://www.w3.org/2000/svg" width="762" height="876" viewBox="0 0 762 876" fill="none">
<g clip-path="url(#clip0_1887:35)">
<path d="M382.602 17.4863L11.136 240.122L15.916 649.79L381.193 858.514L750.864 649.79V231.466L382.602 17.4863Z" fill="#FFDE00"/>
<path d="M646.229 442.897L627.915 435.328C627.279 435.096 626.577 435.119 625.957 435.392C625.337 435.665 624.847 436.167 624.588 436.793C624.329 437.42 624.322 438.122 624.569 438.753C624.815 439.385 625.296 439.896 625.91 440.181L644.225 447.751C644.546 447.9 644.894 447.982 645.248 447.993C645.602 448.004 645.955 447.943 646.285 447.815C646.615 447.686 646.916 447.491 647.168 447.243C647.421 446.995 647.622 446.698 647.757 446.37C647.892 446.043 647.96 445.691 647.956 445.337C647.952 444.982 647.876 444.632 647.734 444.308C647.591 443.983 647.384 443.691 647.126 443.449C646.867 443.206 646.562 443.019 646.229 442.897V442.897Z" fill="black"/>
<path d="M629.167 416.133C629.128 416.829 629.368 417.512 629.833 418.031C630.297 418.55 630.949 418.863 631.644 418.902L651.43 419.997H651.578C651.923 420.006 652.267 419.947 652.589 419.823C652.911 419.7 653.206 419.514 653.456 419.277C653.706 419.039 653.908 418.754 654.048 418.439C654.189 418.124 654.266 417.784 654.275 417.439C654.284 417.093 654.225 416.75 654.102 416.427C653.978 416.105 653.792 415.81 653.555 415.56C653.318 415.309 653.033 415.108 652.718 414.967C652.403 414.827 652.063 414.75 651.718 414.74L631.933 413.645C631.588 413.626 631.243 413.676 630.917 413.791C630.591 413.906 630.291 414.084 630.034 414.315C629.777 414.546 629.568 414.825 629.419 415.138C629.27 415.45 629.184 415.788 629.167 416.133V416.133Z" fill="black"/>
<path d="M626.567 394.232C626.769 394.896 627.226 395.454 627.838 395.782C628.45 396.11 629.167 396.183 629.832 395.984L648.821 390.298C649.151 390.199 649.459 390.036 649.727 389.818C649.994 389.6 650.216 389.331 650.38 389.027C650.544 388.724 650.646 388.39 650.681 388.047C650.716 387.704 650.684 387.357 650.585 387.026C650.486 386.695 650.323 386.387 650.105 386.119C649.887 385.852 649.619 385.629 649.315 385.465C649.011 385.302 648.679 385.199 648.335 385.164C647.992 385.129 647.645 385.162 647.315 385.261L628.326 390.946C627.995 391.045 627.686 391.209 627.418 391.428C627.149 391.647 626.927 391.917 626.764 392.223C626.6 392.528 626.499 392.863 626.465 393.207C626.431 393.552 626.465 393.9 626.567 394.232V394.232Z" fill="black"/>
<path d="M617.059 375.072C617.47 375.634 618.087 376.009 618.775 376.116C619.463 376.223 620.165 376.052 620.727 375.641L636.73 363.937C637.266 363.516 637.617 362.903 637.71 362.228C637.802 361.553 637.63 360.869 637.228 360.319C636.826 359.769 636.226 359.397 635.555 359.281C634.884 359.165 634.194 359.314 633.631 359.697L617.628 371.401C617.066 371.813 616.691 372.43 616.584 373.119C616.478 373.807 616.648 374.509 617.059 375.072V375.072Z" fill="black"/>
<path d="M602.123 360.442C602.406 360.64 602.725 360.78 603.062 360.855C603.399 360.929 603.747 360.937 604.087 360.876C604.427 360.816 604.752 360.69 605.043 360.504C605.334 360.318 605.585 360.076 605.783 359.793L617.164 343.542C617.563 342.966 617.717 342.254 617.593 341.564C617.468 340.874 617.074 340.262 616.498 339.863C615.923 339.463 615.212 339.309 614.522 339.433C613.833 339.558 613.221 339.952 612.821 340.528L601.44 356.78C601.244 357.065 601.106 357.386 601.034 357.724C600.963 358.063 600.958 358.412 601.022 358.752C601.085 359.093 601.215 359.417 601.404 359.707C601.593 359.997 601.838 360.246 602.123 360.442Z" fill="black"/>
<path d="M583.275 351.427C583.944 351.619 584.661 351.538 585.27 351.201C585.879 350.864 586.33 350.3 586.523 349.631L592.021 330.576C592.213 329.906 592.132 329.186 591.795 328.576C591.457 327.966 590.891 327.514 590.222 327.322C589.552 327.129 588.833 327.21 588.223 327.548C587.613 327.885 587.162 328.452 586.969 329.122L581.471 348.176C581.377 348.508 581.348 348.856 581.387 349.199C581.426 349.542 581.533 349.874 581.7 350.175C581.868 350.477 582.093 350.743 582.363 350.958C582.633 351.173 582.943 351.332 583.275 351.427V351.427Z" fill="black"/>
<path d="M561.87 349.07H562.045C562.389 349.05 562.726 348.962 563.037 348.812C563.347 348.661 563.625 348.451 563.854 348.193C564.084 347.935 564.26 347.635 564.373 347.309C564.486 346.983 564.534 346.638 564.514 346.293L563.341 326.494C563.32 326.149 563.232 325.811 563.081 325.5C562.929 325.189 562.719 324.911 562.46 324.682C562.202 324.452 561.9 324.276 561.574 324.163C561.247 324.05 560.902 324.003 560.557 324.023C560.212 324.044 559.874 324.132 559.564 324.284C559.253 324.435 558.975 324.646 558.746 324.905C558.517 325.163 558.34 325.465 558.228 325.791C558.115 326.118 558.067 326.464 558.088 326.809L559.261 346.608C559.303 347.273 559.596 347.897 560.08 348.354C560.565 348.811 561.204 349.067 561.87 349.07V349.07Z" fill="black"/>
<path d="M235.061 159.156L366.555 83.288L310.701 154.6C310.097 155.367 309.822 156.342 309.937 157.312C310.052 158.281 310.547 159.165 311.314 159.769C312.08 160.373 313.054 160.648 314.023 160.533C314.992 160.418 315.875 159.922 316.479 159.156L377.498 81.273V157.404C377.495 157.899 377.59 158.391 377.778 158.849C377.966 159.308 378.243 159.725 378.593 160.075C378.943 160.426 379.36 160.703 379.818 160.891C380.276 161.079 380.767 161.174 381.263 161.171C381.762 161.189 382.26 161.104 382.725 160.921C383.19 160.739 383.612 160.462 383.966 160.108C384.319 159.755 384.595 159.332 384.778 158.867C384.961 158.401 385.046 157.903 385.027 157.404V81.273L446.047 159.156C446.396 159.609 446.848 159.972 447.366 160.216C447.884 160.46 448.452 160.577 449.023 160.557C449.422 160.581 449.822 160.523 450.198 160.387C450.574 160.252 450.919 160.042 451.212 159.769C451.95 159.146 452.424 158.265 452.538 157.306C452.651 156.346 452.397 155.379 451.825 154.6L395.97 83.288L529.828 160.557C530.346 160.896 530.963 161.051 531.579 160.995C532.212 161.007 532.837 160.851 533.39 160.543C533.943 160.235 534.406 159.787 534.731 159.243C535.111 158.338 535.152 157.326 534.846 156.392C534.541 155.459 533.909 154.667 533.067 154.162L382.751 67.3435C382.576 67.2102 382.357 67.1476 382.138 67.1683H380.037C379.862 67.1683 379.599 67.3435 379.424 67.3435L231.472 152.76C230.627 153.239 230.005 154.033 229.743 154.968C229.48 155.904 229.598 156.905 230.071 157.754C230.557 158.591 231.35 159.206 232.282 159.467C233.214 159.729 234.21 159.617 235.061 159.156Z" fill="black"/>
<path d="M527.114 713.358L395.795 789.225L451.65 717.913C452.254 717.146 452.528 716.171 452.413 715.202C452.298 714.232 451.803 713.348 451.037 712.744C450.658 712.445 450.223 712.224 449.758 712.093C449.293 711.962 448.807 711.923 448.327 711.98C447.359 712.095 446.475 712.591 445.872 713.358L384.852 791.24V715.11C384.856 714.614 384.761 714.123 384.573 713.664C384.385 713.205 384.108 712.789 383.757 712.438C383.407 712.088 382.991 711.81 382.532 711.622C382.074 711.434 381.583 711.339 381.088 711.343C380.588 711.324 380.091 711.409 379.626 711.592C379.161 711.775 378.738 712.051 378.385 712.405C378.032 712.759 377.755 713.181 377.572 713.647C377.39 714.112 377.305 714.61 377.323 715.11V791.24L316.304 713.358C315.7 712.591 314.817 712.095 313.848 711.98C312.879 711.865 311.905 712.14 311.139 712.744C310.372 713.348 309.877 714.232 309.762 715.202C309.647 716.171 309.922 717.146 310.526 717.913L366.38 789.225L232.522 711.956C232.102 711.695 231.632 711.523 231.143 711.449C230.654 711.374 230.155 711.4 229.676 711.524C229.197 711.647 228.748 711.867 228.356 712.169C227.964 712.471 227.637 712.849 227.395 713.28C227.152 713.712 227 714.188 226.946 714.68C226.893 715.172 226.939 715.67 227.083 716.144C227.227 716.618 227.465 717.057 227.783 717.437C228.1 717.816 228.492 718.127 228.933 718.351L379.249 805.17H379.424C379.599 805.17 379.599 805.345 379.862 805.345H380.387C380.562 805.345 381 805.52 381.175 805.52C381.613 805.52 381.788 805.52 381.963 805.345H382.313C382.489 805.345 382.489 805.17 382.751 805.17H382.926L530.879 719.753C531.673 719.227 532.239 718.421 532.466 717.496C532.693 716.57 532.564 715.594 532.105 714.759C531.618 713.922 530.825 713.308 529.893 713.046C528.962 712.784 527.965 712.896 527.114 713.358Z" fill="black"/>
<path d="M541.997 712.394C544.511 712.394 546.549 710.354 546.549 707.838C546.549 705.322 544.511 703.283 541.997 703.283C539.483 703.283 537.445 705.322 537.445 707.838C537.445 710.354 539.483 712.394 541.997 712.394Z" fill="black"/>
<path d="M381.438 694.522C383.952 694.522 385.99 692.482 385.99 689.966C385.99 687.45 383.952 685.411 381.438 685.411C378.924 685.411 376.885 687.45 376.885 689.966C376.885 692.482 378.924 694.522 381.438 694.522Z" fill="black"/>
<path d="M218.252 712.394C220.767 712.394 222.805 710.354 222.805 707.838C222.805 705.322 220.767 703.283 218.252 703.283C215.738 703.283 213.7 705.322 213.7 707.838C213.7 710.354 215.738 712.394 218.252 712.394Z" fill="black"/>
<path d="M755.259 214.042L387.741 1.75245C385.684 0.589364 383.362 -0.0218506 381 -0.0218506C378.638 -0.0218506 376.316 0.589364 374.259 1.75245L6.74104 214.042C4.69205 215.218 2.98973 216.915 1.80609 218.961C0.622446 221.007 -0.000567396 223.329 3.8774e-07 225.693V650.325C-0.000567396 652.689 0.622446 655.011 1.80609 657.057C2.98973 659.103 4.69205 660.8 6.74104 661.976L374.259 874.248C376.312 875.418 378.638 876.023 381 876C383.36 876.002 385.68 875.399 387.741 874.248L755.259 661.976C757.308 660.8 759.01 659.103 760.194 657.057C761.378 655.011 762.001 652.689 762 650.325V225.693C762.001 223.329 761.378 221.007 760.194 218.961C759.01 216.915 757.308 215.218 755.259 214.042ZM661.725 632.716V493.867H665.227V632.716H661.725ZM551.084 632.716V493.85H655.614H655.789H656.472V632.716H551.084ZM531.675 632.716V493.85H536.166V632.707L531.675 632.716ZM469.141 632.716V579.144H473.291V632.707L469.141 632.716ZM507.661 573.896C505.911 566.677 498.907 561.351 490.721 561.351C482.536 561.351 475.541 566.695 473.772 573.896H469.728C470.786 569.109 473.445 564.826 477.266 561.756C481.086 558.686 485.839 557.013 490.739 557.013C495.639 557.013 500.392 558.686 504.212 561.756C508.033 564.826 510.692 569.109 511.75 573.896H507.661ZM502.172 573.896H479.235C480.899 569.63 485.425 566.607 490.695 566.607C495.965 566.607 500.474 569.621 502.146 573.888L502.172 573.896ZM478.535 579.153H502.829V632.716H478.552L478.535 579.153ZM508.082 579.153H512.231V632.716H508.082V579.153ZM490.704 551.74C484.141 551.751 477.81 554.171 472.91 558.54C468.01 562.909 464.881 568.924 464.116 575.447C463.859 575.995 463.809 576.617 463.976 577.199C463.976 577.462 463.976 577.733 463.976 577.996C463.936 578.178 463.916 578.363 463.915 578.548V632.724H454.898V493.85H526.431V632.707H517.502V578.539C517.495 571.434 514.671 564.622 509.65 559.597C504.629 554.573 497.822 551.747 490.721 551.74H490.704ZM445.18 632.716V493.85H449.557V632.707L445.18 632.716ZM417.778 632.716V493.85H422.155V632.707L417.778 632.716ZM359.402 632.716V579.144H363.552V632.707L359.402 632.716ZM350.07 632.716V579.144H354.15V632.707L350.07 632.716ZM298.059 632.716V578.539C298.058 578.36 298.037 578.181 297.998 578.005C297.998 577.733 297.998 577.462 297.998 577.182C298.165 576.6 298.115 575.977 297.858 575.429C297.075 568.828 293.868 562.754 288.859 558.387C283.851 554.021 277.399 551.673 270.758 551.801C264.116 551.929 257.76 554.523 252.923 559.079C248.086 563.635 245.114 569.828 244.586 576.454C244.586 576.454 244.586 576.454 244.586 576.454C244.533 577.12 244.498 577.786 244.498 578.469V632.646H235.569V493.85H307.102V632.707L298.059 632.716ZM249.707 632.716V579.144H253.883V632.707L249.707 632.716ZM288.228 573.896C286.477 566.677 279.473 561.351 271.279 561.351C263.084 561.351 256.107 566.686 254.338 573.896H250.241C251.299 569.109 253.959 564.826 257.779 561.756C261.6 558.686 266.353 557.013 271.252 557.013C276.152 557.013 280.905 558.686 284.726 561.756C288.546 564.826 291.205 569.109 292.263 573.896H288.228ZM282.738 573.896H259.845C261.509 569.63 266.026 566.607 271.296 566.607C276.566 566.607 281.093 569.621 282.773 573.888L282.738 573.896ZM259.101 579.153H283.395V632.716H259.136L259.101 579.153ZM288.648 579.153H292.797V632.716H288.648V579.153ZM225.869 632.716V493.85H230.36V632.707L225.869 632.716ZM216.239 632.716V493.85H220.616V632.707L216.239 632.716ZM96.8258 632.716V493.867H100.328V632.716H96.8258ZM27.2005 632.716L27.0429 530.715L28.1723 529.97L28.3824 529.839L28.4699 529.786L88.0012 490.906V491.248C88.0012 491.945 88.2779 492.613 88.7704 493.106C89.263 493.599 89.931 493.876 90.6276 493.876H91.5993V632.716H27.2005ZM101.772 471.79V472.815H95.1012V471.79H101.772ZM138.2 458.106L139.951 456.95L194.098 421.583L219.119 405.235V466.56H206.179C205.483 466.56 204.815 466.837 204.322 467.33C203.83 467.823 203.553 468.491 203.553 469.188V472.036H116.883L138.2 458.106ZM352.959 326.897C352.959 326.95 353.012 326.993 353.038 327.046C353.077 327.136 353.121 327.224 353.169 327.309C353.169 327.379 353.265 327.44 353.309 327.51C353.353 327.58 353.414 327.651 353.467 327.712L353.651 327.887L353.843 328.045L354.071 328.185L354.281 328.299L354.57 328.404L354.719 328.465C354.919 328.516 355.125 328.542 355.332 328.544V328.544C355.477 328.556 355.624 328.556 355.769 328.544V328.544C355.915 328.515 356.059 328.474 356.198 328.421H356.242L356.33 328.378C356.435 328.332 356.537 328.279 356.636 328.22L356.785 328.124C356.87 328.061 356.952 327.994 357.03 327.922L357.152 327.817C357.248 327.719 357.336 327.613 357.415 327.502C357.507 327.369 357.586 327.228 357.651 327.081C357.651 327.081 357.651 327.002 357.651 326.967C357.689 326.876 357.721 326.782 357.748 326.687C358.186 325.057 359.499 321.054 362.58 319.161C363.432 318.625 364.398 318.298 365.399 318.206L408.393 317.637L432.451 333.345L429.588 337.769C429.331 338.166 429.186 338.625 429.168 339.097C429.15 339.57 429.26 340.038 429.486 340.454C429.712 340.869 430.046 341.215 430.452 341.457C430.858 341.698 431.322 341.826 431.794 341.825H439.778V389.799L438.903 390.833C438.903 390.833 438.842 390.92 438.807 390.964C438.747 391.037 438.692 391.113 438.64 391.192C438.596 391.262 438.561 391.332 438.526 391.411C438.491 391.49 438.448 391.569 438.421 391.647C438.395 391.726 438.369 391.814 438.343 391.893C438.316 391.972 438.343 392.05 438.29 392.138C438.285 392.231 438.285 392.325 438.29 392.418C438.29 392.471 438.29 392.524 438.29 392.576V415.091H425.079L394.167 396.624L394.964 395.651C395.13 395.449 395.232 395.202 395.257 394.941C395.282 394.68 395.229 394.418 395.104 394.188C395.019 394.03 394.986 393.849 395.007 393.671C395.032 393.471 395.125 393.285 395.27 393.146C395.515 392.904 395.655 392.577 395.661 392.233C395.667 391.889 395.539 391.557 395.303 391.307C395.067 391.057 394.742 390.91 394.399 390.897C394.056 390.883 393.721 391.005 393.467 391.236C392.432 392.191 391.249 392.972 389.965 393.549C389.673 393.677 389.381 393.797 389.089 393.908L388.792 393.373C388.67 393.177 388.501 393.013 388.301 392.897C388.101 392.781 387.876 392.716 387.645 392.707H386.69L385.561 392.602L384.94 392.287C385.261 392.248 385.565 392.117 385.815 391.91C387.006 390.929 386.507 388.748 386.095 387.53C385.36 385.331 383.749 382.948 381.473 382.86C379.197 382.773 377.568 384.788 376.649 386.698C376.29 387.434 375.231 389.948 376.421 391.332C376.726 391.68 377.14 391.915 377.594 391.998L376.334 392.629L375.703 392.769H374.74C374.542 392.763 374.345 392.802 374.163 392.883C373.981 392.963 373.82 393.083 373.69 393.233L373.051 393.995C372.692 393.873 372.333 393.724 371.992 393.566C370.706 392.991 369.524 392.209 368.49 391.253C368.235 391.022 367.9 390.901 367.557 390.914C367.214 390.927 366.89 391.075 366.654 391.325C366.418 391.574 366.289 391.907 366.295 392.25C366.301 392.594 366.442 392.922 366.686 393.163C366.832 393.303 366.924 393.488 366.949 393.689C366.97 393.871 366.933 394.054 366.844 394.214C366.721 394.443 366.668 394.704 366.693 394.963C366.718 395.222 366.819 395.467 366.984 395.669L368.061 396.983L337.709 415.109H323.605V392.48C323.605 392.427 323.605 392.375 323.605 392.322C323.61 392.229 323.61 392.135 323.605 392.042C323.605 391.954 323.605 391.875 323.552 391.796C323.511 391.626 323.45 391.461 323.368 391.306C323.368 391.236 323.298 391.166 323.255 391.096C323.201 391.014 323.142 390.935 323.08 390.859C323.08 390.859 323.027 390.771 322.992 390.736L322.117 389.703V341.746H330.048C330.521 341.747 330.984 341.619 331.391 341.378C331.797 341.137 332.13 340.79 332.356 340.375C332.582 339.959 332.692 339.491 332.674 339.018C332.656 338.546 332.511 338.087 332.254 337.69L329.348 333.196L346.139 322.228C347.209 321.912 348.359 322.009 349.361 322.499C351.453 323.533 352.574 325.898 352.959 326.897ZM666.969 471.782V472.807H660.298V471.782H666.969ZM658.424 488.611V487.533H668.851V488.62L658.424 488.611ZM545.306 488.611V487.586H549.789V488.611H545.306ZM535.151 488.611H528.033V487.586H540.053V488.611H535.151ZM441.582 488.611V487.586H453.593V488.611H441.582ZM417.804 488.611V487.586H425.876V488.611H417.804ZM397.94 573.905C396.189 566.686 389.186 561.36 380.991 561.36C372.797 561.36 365.82 566.704 364.051 573.905H359.954C361.012 569.118 363.671 564.835 367.492 561.765C371.312 558.695 376.065 557.022 380.965 557.022C385.865 557.022 390.618 558.695 394.438 561.765C398.259 564.835 400.918 569.118 401.976 573.905H397.94ZM392.451 573.905H369.54C371.204 569.639 375.721 566.616 380.991 566.616C386.262 566.616 390.788 569.621 392.451 573.888V573.905ZM407.334 573.905C406.246 567.697 403.005 562.072 398.182 558.019C393.359 553.966 387.263 551.744 380.965 551.744C374.667 551.744 368.571 553.966 363.748 558.019C358.925 562.072 355.684 567.697 354.596 573.905H350.499C351.686 566.58 355.439 559.917 361.087 555.108C366.735 550.299 373.908 547.658 381.324 547.658C388.739 547.658 395.913 550.299 401.561 555.108C407.209 559.917 410.962 566.58 412.149 573.905H407.334ZM308.407 488.611V487.586H320.418V488.611H308.407ZM226.858 488.611H221.955V487.586H233.975V488.611H226.858ZM100.118 478.098V482.303H96.3006V478.098H100.118ZM204.297 477.292C204.492 477.49 204.716 477.655 204.963 477.783V482.347H106.64C106.497 482.335 106.354 482.335 106.211 482.347H105.335V479.579L108.058 477.826L108.776 477.353L204.297 477.292ZM216.694 471.817V472.842H208.815V471.817H216.694ZM224.328 400.469C224.328 400.469 224.328 400.426 224.328 400.399V393.452L225.203 392.418C225.203 392.375 225.273 392.322 225.308 392.278L225.396 392.164L225.44 392.085C225.491 392.003 225.538 391.919 225.58 391.831L225.641 391.718V391.63C225.676 391.535 225.705 391.439 225.728 391.341V391.227V391.139C225.735 391.034 225.735 390.929 225.728 390.824C225.728 390.824 225.728 390.763 225.728 390.736V390.57C225.728 390.57 225.728 390.57 225.728 390.526V341.755H316.776V390.552C316.776 390.552 316.776 390.552 316.776 390.614V390.78C316.776 390.78 316.776 390.833 316.776 390.859C316.77 390.964 316.77 391.069 316.776 391.174V391.262V391.376C316.803 391.474 316.835 391.571 316.873 391.665V391.753L316.925 391.866C316.967 391.954 317.014 392.039 317.065 392.121L317.109 392.199L317.197 392.313C317.197 392.357 317.258 392.41 317.302 392.453L318.177 393.487V425.954H307.672C306.975 425.954 306.307 426.231 305.814 426.724C305.322 427.217 305.045 427.886 305.045 428.583V434.864C305.048 435.432 305.234 435.984 305.577 436.438C305.919 436.891 306.399 437.221 306.945 437.378V482.312H235.569V437.378C236.114 437.221 236.594 436.891 236.937 436.438C237.28 435.984 237.466 435.432 237.468 434.864V428.583C237.468 427.886 237.192 427.217 236.699 426.724C236.207 426.231 235.539 425.954 234.842 425.954H224.337L224.328 400.469ZM337.717 420.295C338.145 420.409 338.594 420.409 339.022 420.295H372.009C371.071 421.941 370.606 423.814 370.665 425.708C370.724 427.601 371.304 429.442 372.342 431.027C353.686 433.138 341.193 440.856 336.282 444.431C335.948 444.674 335.677 444.993 335.49 445.362C335.303 445.73 335.205 446.138 335.205 446.551V482.338H323.605V420.269L337.717 420.295ZM378.54 389.387C378.739 388.324 379.199 387.328 379.879 386.487C380.049 386.222 380.269 385.993 380.527 385.814C380.786 385.635 381.078 385.51 381.385 385.445V385.445C381.648 385.5 381.897 385.609 382.117 385.764C382.337 385.919 382.523 386.118 382.663 386.347C383.037 386.886 383.332 387.477 383.539 388.099C383.172 387.732 382.717 387.466 382.217 387.325C381.717 387.185 381.19 387.177 380.686 387.3C380.182 387.423 379.718 387.674 379.339 388.029C378.96 388.384 378.679 388.831 378.522 389.326L378.54 389.387ZM531.684 482.321V437.492H537.681V482.312H531.684V482.321ZM537.681 431.22V432.245H529.802V431.22H537.681ZM547.075 478.063H551.793V482.321H547.075V478.063ZM553.203 472.807H545.324V471.782H553.203V472.807ZM536.105 341.746V390.64C536.105 390.64 536.105 390.71 536.105 390.745C536.097 390.862 536.097 390.979 536.105 391.096C536.105 391.157 536.105 391.218 536.105 391.279C536.131 391.384 536.163 391.486 536.201 391.586C536.201 391.647 536.254 391.709 536.289 391.77C536.331 391.86 536.377 391.948 536.429 392.033L536.56 392.217C536.56 392.269 536.63 392.322 536.674 392.375L537.55 393.408V400.417C537.55 400.417 537.55 400.478 537.55 400.513V425.963H527.044C526.348 425.963 525.68 426.24 525.187 426.733C524.694 427.226 524.418 427.894 524.418 428.591V434.873C524.42 435.441 524.607 435.993 524.949 436.447C525.292 436.9 525.772 437.23 526.318 437.387V482.321H454.898V437.378C455.443 437.221 455.923 436.891 456.266 436.438C456.608 435.984 456.795 435.432 456.797 434.864V428.583C456.797 427.886 456.521 427.217 456.028 426.724C455.535 426.231 454.867 425.954 454.171 425.954H443.665V393.496L444.541 392.462C444.585 392.41 444.62 392.348 444.663 392.296L444.786 392.129C444.844 392.036 444.897 391.94 444.944 391.84L445.014 391.674C445.056 391.565 445.091 391.454 445.119 391.341C445.119 391.288 445.119 391.236 445.119 391.183C445.128 391.058 445.128 390.932 445.119 390.806C445.119 390.806 445.119 390.745 445.119 390.71V341.746H536.105ZM443.648 482.321V437.492H449.645V482.312L443.648 482.321ZM451.527 432.245H443.648V431.22H451.527V432.245ZM438.395 482.321H427.487V445.683C427.487 445.683 427.487 445.683 427.487 445.631C427.498 445.193 427.4 444.759 427.201 444.369C427.003 443.979 426.709 443.645 426.349 443.397C421.306 439.893 408.516 432.499 389.781 430.808C390.76 429.237 391.296 427.431 391.333 425.58C391.37 423.73 390.906 421.903 389.991 420.295H438.395V482.321ZM417.813 482.321V454.435C417.813 454.435 417.813 454.435 417.813 454.383C417.819 454.284 417.819 454.184 417.813 454.085C417.813 454.006 417.813 453.936 417.813 453.866C417.791 453.78 417.765 453.695 417.734 453.612C417.734 453.533 417.691 453.454 417.655 453.384C417.62 453.314 417.577 453.235 417.533 453.165C417.493 453.087 417.449 453.011 417.402 452.937C417.402 452.876 417.305 452.815 417.253 452.762C417.193 452.686 417.128 452.612 417.06 452.543V452.543C407.294 443.557 394.459 438.658 381.193 438.854C367.928 439.049 355.242 444.325 345.745 453.594C345.493 453.839 345.293 454.132 345.156 454.455C345.019 454.779 344.949 455.127 344.949 455.478V482.364H340.571V447.935C346.559 443.817 360.637 435.977 381.306 435.766H382.182C402.317 435.766 416.325 443.099 422.383 447.033V482.373L417.813 482.321ZM353.764 487.577H408.612V488.602H353.764V487.577ZM411.238 482.321H350.114V456.564C358.558 448.698 369.618 444.246 381.154 444.07C392.689 443.893 403.88 448.005 412.56 455.609V482.321H411.238ZM377.866 406.795C377.735 405.533 377.559 404.272 377.349 403.01C377.784 403.537 378.136 404.128 378.391 404.762C378.717 405.658 378.889 406.603 378.899 407.557C378.881 409.194 379.361 410.798 380.273 412.156C381.079 413.165 381.972 414.1 382.944 414.951L383.014 415.021H378.199C378.25 412.272 378.136 409.522 377.857 406.786L377.866 406.795ZM381.009 420.269C382.015 420.269 382.998 420.567 383.835 421.126C384.671 421.686 385.323 422.481 385.708 423.411C386.093 424.341 386.194 425.364 385.997 426.352C385.801 427.339 385.317 428.246 384.605 428.958C383.894 429.67 382.988 430.154 382.001 430.351C381.014 430.547 379.992 430.446 379.062 430.061C378.133 429.676 377.338 429.024 376.78 428.186C376.221 427.349 375.922 426.365 375.922 425.359C375.925 424.011 376.46 422.719 377.412 421.765C378.363 420.811 379.653 420.273 381 420.269H381.009ZM386.445 415.012C386.401 412.359 386.518 409.705 386.796 407.066C386.971 405.402 387.216 403.737 387.513 402.09C387.654 401.328 387.802 400.566 387.969 399.812L388.73 400.075C389.048 400.187 389.396 400.171 389.702 400.031V400.031L414.801 415.021L386.445 415.012ZM388.529 397.193L387.461 396.816C387.288 396.756 387.105 396.733 386.922 396.748C386.74 396.763 386.563 396.815 386.402 396.903C386.241 396.99 386.101 397.11 385.989 397.255C385.877 397.4 385.797 397.567 385.754 397.745C385.649 398.174 385.561 398.621 385.465 399.033C385.342 398.936 385.228 398.831 385.106 398.735C384.352 398.184 383.516 397.755 382.628 397.465C382.237 397.338 381.858 397.174 381.499 396.974C380.453 396.277 379.632 395.291 379.135 394.135L379.468 393.969L379.573 393.908H379.643H379.696L380.571 393.268C380.983 393.418 381.427 393.454 381.858 393.373L382.051 393.654C382.242 393.92 382.526 394.104 382.847 394.171L384.651 395.047C384.799 395.119 384.959 395.164 385.123 395.178L386.559 395.309C386.559 395.309 386.629 395.309 386.682 395.309H386.953L387.4 396.098C387.53 396.327 387.727 396.512 387.965 396.626C388.203 396.74 388.47 396.779 388.73 396.737C388.646 396.879 388.576 397.029 388.52 397.184L388.529 397.193ZM376.71 395.187C377.426 396.841 378.617 398.244 380.133 399.217C380.635 399.51 381.166 399.751 381.718 399.935C382.365 400.128 382.977 400.424 383.53 400.811C384.02 401.191 384.456 401.636 384.826 402.134C384.554 403.667 384.335 405.218 384.178 406.76C383.994 408.512 383.88 410.325 383.828 412.112C383.326 411.644 382.855 411.144 382.418 410.614C381.797 409.645 381.491 408.506 381.543 407.355C381.542 405.616 381.081 403.907 380.206 402.403C379.331 400.9 378.073 399.655 376.561 398.796C376.483 398.437 376.404 398.078 376.316 397.719C376.273 397.541 376.193 397.374 376.081 397.229C375.969 397.084 375.829 396.964 375.668 396.877C375.507 396.789 375.33 396.736 375.148 396.721C374.965 396.706 374.782 396.73 374.609 396.79L373.812 397.07C373.764 396.94 373.706 396.814 373.637 396.694C373.815 396.685 373.989 396.64 374.148 396.562C374.308 396.483 374.45 396.373 374.565 396.238L375.362 395.301H375.861C375.969 395.314 376.077 395.314 376.185 395.301L376.71 395.187ZM372.701 400.294C372.786 400.238 372.868 400.176 372.946 400.11C373.071 400.108 373.195 400.087 373.313 400.049L374.075 399.786C375.167 404.786 375.669 409.896 375.572 415.012H348.048L372.701 400.294ZM318.37 431.22V432.245H310.49V431.22H318.37ZM312.373 437.501H318.37V482.321H312.373V437.501ZM226.858 482.321H224.337V437.492H230.325V482.312L226.858 482.321ZM210.224 482.321V478.063H214.943V482.321H210.224ZM232.224 432.245H224.345V431.22H232.224V432.245ZM93.1577 488.611V487.533H101.378C101.521 487.545 101.664 487.545 101.807 487.533H103.558V488.576L93.1577 488.611ZM108.828 487.568H206.95V488.55H108.828V487.568ZM212.203 488.593V487.568H216.694V488.593H212.203ZM239.211 487.568H303.119V488.593H239.211V487.568ZM325.662 487.568H331.239V488.593H325.671L325.662 487.568ZM336.492 488.593V487.568H344.852V488.593H336.492ZM350.114 493.85H412.552V494.437C412.552 494.437 412.552 494.516 412.552 494.559V560.054C409.31 554.667 404.732 550.21 399.261 547.115C393.79 544.021 387.613 542.395 381.328 542.395C375.044 542.395 368.867 544.021 363.396 547.115C357.925 550.21 353.346 554.667 350.105 560.054L350.114 493.85ZM431.129 487.568H436.329V488.593H431.129V487.568ZM458.855 487.568H522.763V488.593H458.855V487.568ZM555.05 487.568H653.172V488.593H555.041L555.05 487.568ZM661.856 478.063H665.656V482.268H661.856V478.063ZM656.603 479.535V482.268H655.728C655.585 482.256 655.442 482.256 655.299 482.268H557.046V477.704C557.292 477.576 557.517 477.411 557.711 477.213H653.137L656.603 479.535ZM645.074 472.001H558.403V469.153C558.403 468.456 558.126 467.788 557.634 467.295C557.141 466.802 556.473 466.525 555.777 466.525H542.934V405.288L645.074 472.001ZM538.758 336.499H436.854L438.5 333.949L490.66 253.185L544.536 336.499H538.758ZM325.146 336.499H217.464L271.34 253.185L325.146 336.499ZM105.528 493.867H106.202C106.387 493.866 106.572 493.846 106.754 493.806H209.182C209.322 493.817 209.463 493.817 209.603 493.806H210.933V632.663H105.528V493.867ZM312.364 493.867H316.741V632.724H312.364V493.867ZM321.994 493.867H335.126V632.724H321.994V493.867ZM340.379 493.867H344.756V495.453C344.756 495.453 344.756 495.506 344.756 495.541V576.454C344.756 576.454 344.756 576.507 344.756 576.542V632.733H340.379V493.867ZM368.779 579.161H393.073V632.724H368.857L368.779 579.161ZM398.325 579.161H402.475V632.724H398.325V579.161ZM407.728 579.161H412.482V632.724H407.728V579.161ZM427.417 493.867H439.901V632.724H427.487L427.417 493.867ZM541.349 493.867H545.726V632.724H541.349V493.867ZM670.427 493.867H671.477C672.174 493.867 672.842 493.59 673.335 493.097C673.827 492.605 674.104 491.936 674.104 491.239V490.924L686.115 498.808L735.237 530.89L735.298 632.777H735.088H670.497L670.427 493.867ZM380.991 29.0245L735.027 233.499L735.22 524.574L691.298 495.856L674.104 484.633C674.039 483.983 673.733 483.38 673.248 482.943C672.762 482.505 672.131 482.265 671.477 482.268H670.952V477.677C671.34 477.445 671.662 477.117 671.885 476.724C672.109 476.331 672.228 475.887 672.23 475.435V469.153C672.23 468.456 671.954 467.788 671.461 467.295C670.969 466.802 670.301 466.525 669.604 466.525H657.671C656.975 466.525 656.307 466.802 655.814 467.295C655.322 467.788 655.045 468.456 655.045 469.153V472.001H654.721L650.178 469.031L609.81 442.67C616.483 432.859 619.703 421.105 618.962 409.261C618.221 397.417 613.562 386.156 605.718 377.255C597.875 368.354 587.294 362.319 575.644 360.101C563.994 357.883 551.937 359.609 541.375 365.006V341.755H549.36C549.505 341.738 549.648 341.709 549.789 341.668H549.92L550.261 341.563H550.375C550.506 341.506 550.632 341.438 550.752 341.361V341.361C550.856 341.289 550.956 341.21 551.049 341.124L551.154 341.037C551.233 340.954 551.306 340.866 551.373 340.774L551.478 340.651C551.547 340.545 551.609 340.434 551.662 340.318L551.723 340.213C551.754 340.13 551.78 340.045 551.802 339.959C551.802 339.88 551.855 339.81 551.872 339.723C551.89 339.635 551.872 339.6 551.872 339.539C551.879 339.428 551.879 339.317 551.872 339.206V339.206C551.872 339.145 551.872 339.092 551.872 339.031C551.879 338.926 551.879 338.82 551.872 338.715C551.854 338.626 551.83 338.539 551.802 338.452C551.802 338.374 551.802 338.295 551.732 338.225C551.687 338.116 551.634 338.011 551.575 337.909C551.575 337.909 551.575 337.822 551.505 337.778L495.475 251.091H497.366C498.063 251.091 498.731 250.814 499.223 250.321C499.716 249.828 499.992 249.16 499.992 248.463C499.992 247.765 499.716 247.097 499.223 246.604C498.731 246.111 498.063 245.834 497.366 245.834H493.278V235.558C493.516 235.485 493.764 235.447 494.013 235.444V235.444C494.648 235.449 495.264 235.665 495.764 236.057C496.035 236.277 496.347 236.44 496.682 236.537C497.017 236.635 497.368 236.665 497.715 236.625C498.061 236.585 498.396 236.477 498.7 236.306C499.005 236.135 499.272 235.906 499.486 235.63C499.701 235.355 499.858 235.04 499.95 234.703C500.041 234.366 500.065 234.015 500.019 233.669C499.973 233.323 499.859 232.989 499.683 232.688C499.507 232.387 499.273 232.123 498.994 231.914C497.593 230.808 495.868 230.193 494.083 230.161H494.013C493.759 230.161 493.523 230.161 493.286 230.161V228.777C493.286 228.08 493.01 227.412 492.517 226.919C492.025 226.426 491.357 226.149 490.66 226.149C489.964 226.149 489.295 226.426 488.803 226.919C488.31 227.412 488.034 228.08 488.034 228.777V230.161C487.815 230.161 487.596 230.161 487.368 230.161H487.298C485.493 230.178 483.743 230.794 482.326 231.914C482.047 232.123 481.813 232.387 481.637 232.688C481.461 232.989 481.347 233.323 481.301 233.669C481.255 234.015 481.279 234.366 481.37 234.703C481.462 235.04 481.619 235.355 481.834 235.63C482.048 235.906 482.316 236.135 482.62 236.306C482.924 236.477 483.259 236.585 483.606 236.625C483.952 236.665 484.303 236.635 484.638 236.537C484.973 236.44 485.285 236.277 485.556 236.057C486.059 235.671 486.673 235.459 487.307 235.453V235.453C487.547 235.455 487.786 235.491 488.016 235.558V245.712H483.928C483.231 245.712 482.563 245.989 482.071 246.481C481.578 246.974 481.301 247.643 481.301 248.34C481.301 249.037 481.578 249.705 482.071 250.198C482.563 250.691 483.231 250.968 483.928 250.968H485.819L435.48 328.86L410.809 312.757L410.704 312.705C410.595 312.638 410.481 312.58 410.363 312.53L410.144 312.459L409.881 312.381C409.779 312.375 409.677 312.375 409.575 312.381H409.391L365.469 312.959H365.285C363.434 313.116 361.647 313.717 360.077 314.711C357.92 316.106 356.157 318.03 354.955 320.3C354.021 319.289 352.908 318.461 351.672 317.856C350.51 317.298 349.248 316.975 347.961 316.905C346.673 316.836 345.385 317.022 344.169 317.453C343.972 317.524 343.784 317.618 343.609 317.733L326.459 328.789L276.164 250.968H278.055C278.751 250.968 279.419 250.691 279.912 250.198C280.404 249.705 280.681 249.037 280.681 248.34C280.681 247.643 280.404 246.974 279.912 246.481C279.419 245.989 278.751 245.712 278.055 245.712H273.966V235.558C274.196 235.488 274.435 235.449 274.675 235.444C275.307 235.462 275.918 235.673 276.426 236.049C276.977 236.463 277.667 236.644 278.35 236.554C279.033 236.463 279.653 236.108 280.076 235.565C280.5 235.022 280.693 234.334 280.615 233.649C280.536 232.964 280.192 232.338 279.657 231.905C278.218 230.78 276.448 230.164 274.623 230.153C274.395 230.153 274.176 230.153 273.958 230.153V228.768C273.958 228.071 273.681 227.403 273.188 226.91C272.696 226.417 272.028 226.14 271.331 226.14C270.635 226.14 269.967 226.417 269.474 226.91C268.982 227.403 268.705 228.071 268.705 228.768V230.153C268.468 230.153 268.223 230.153 267.978 230.153H267.891C266.106 230.184 264.381 230.8 262.979 231.905C262.701 232.115 262.466 232.378 262.291 232.679C262.115 232.981 262 233.314 261.955 233.66C261.909 234.006 261.932 234.358 262.024 234.694C262.115 235.031 262.273 235.346 262.488 235.622C262.702 235.897 262.969 236.126 263.273 236.297C263.578 236.468 263.913 236.576 264.259 236.616C264.606 236.656 264.957 236.626 265.291 236.529C265.626 236.431 265.939 236.268 266.21 236.049C266.709 235.656 267.325 235.44 267.961 235.435C268.215 235.441 268.469 235.479 268.714 235.549V245.694H264.625C263.929 245.694 263.261 245.971 262.768 246.464C262.275 246.957 261.999 247.625 261.999 248.322C261.999 249.019 262.275 249.688 262.768 250.181C263.261 250.674 263.929 250.951 264.625 250.951H266.516L210.487 337.638C210.487 337.638 210.487 337.725 210.417 337.769C210.357 337.87 210.304 337.976 210.259 338.085C210.259 338.163 210.207 338.242 210.189 338.312C210.161 338.399 210.138 338.486 210.119 338.575C210.113 338.68 210.113 338.785 210.119 338.89C210.119 338.952 210.119 339.004 210.119 339.066C210.112 339.177 210.112 339.288 210.119 339.399C210.119 339.46 210.119 339.521 210.119 339.583C210.119 339.644 210.163 339.74 210.189 339.819C210.211 339.905 210.237 339.99 210.268 340.073L210.329 340.178C210.382 340.294 210.444 340.405 210.513 340.511L210.618 340.634C210.685 340.726 210.758 340.814 210.837 340.897L210.942 340.984C211.035 341.07 211.135 341.149 211.24 341.221C211.359 341.298 211.485 341.366 211.616 341.422H211.73C211.841 341.465 211.955 341.5 212.071 341.527H212.203C212.356 341.556 212.511 341.57 212.667 341.571H220.616V389.475L219.74 390.509C219.74 390.509 219.679 390.596 219.644 390.64C219.585 390.713 219.529 390.789 219.478 390.868C219.434 390.938 219.399 391.008 219.364 391.087C219.329 391.166 219.285 391.244 219.259 391.323C219.233 391.402 219.206 391.49 219.18 391.569C219.154 391.647 219.18 391.726 219.128 391.814C219.123 391.907 219.123 392.001 219.128 392.094C219.128 392.147 219.128 392.199 219.128 392.252V398.779L191.235 417.001L137.088 452.368L107.323 471.834H107.051V468.987C107.051 468.29 106.774 467.621 106.282 467.128C105.789 466.636 105.121 466.359 104.425 466.359H92.4048C91.7082 466.359 91.0402 466.636 90.5476 467.128C90.0551 467.621 89.7784 468.29 89.7784 468.987V475.268C89.7806 475.721 89.8994 476.165 90.1233 476.558C90.3472 476.95 90.6687 477.279 91.0565 477.511V482.102H90.5313C89.8833 482.097 89.2567 482.333 88.7719 482.763C88.2871 483.193 87.9783 483.788 87.9049 484.432L26.9554 524.451L26.5177 233.499L380.991 29.0245ZM380.991 847.09L380.886 847.029L35.7713 647.609H210.11V641.476H27.1392V637.972H735.08H735.298V641.476H551.933V647.609H726.631L380.991 847.09Z" fill="black"/>
<path d="M262.2 182.573C261.831 182.568 261.465 182.638 261.123 182.777C260.781 182.916 260.47 183.122 260.209 183.384C259.948 183.645 259.742 183.956 259.602 184.298C259.463 184.64 259.394 185.007 259.399 185.376V198.868L248.368 184.325C247.58 183.361 246.792 182.573 245.391 182.573H244.779C244.387 182.569 243.998 182.644 243.635 182.793C243.273 182.941 242.943 183.16 242.666 183.438C242.389 183.715 242.17 184.045 242.022 184.408C241.873 184.771 241.799 185.159 241.802 185.552V206.402C241.796 206.77 241.863 207.136 241.999 207.478C242.134 207.821 242.336 208.133 242.592 208.397C242.848 208.662 243.153 208.873 243.491 209.019C243.829 209.165 244.192 209.244 244.56 209.249C244.928 209.255 245.293 209.188 245.635 209.053C245.977 208.917 246.289 208.715 246.554 208.459C246.818 208.203 247.029 207.897 247.175 207.559C247.321 207.221 247.399 206.858 247.405 206.49V192.385L258.874 207.453C259.661 208.417 260.449 209.206 261.85 209.206H262.025C262.417 209.209 262.806 209.134 263.168 208.986C263.531 208.837 263.861 208.618 264.138 208.341C264.415 208.064 264.634 207.734 264.782 207.371C264.931 207.008 265.005 206.619 265.002 206.227V185.376C265.006 185.007 264.937 184.64 264.798 184.298C264.659 183.956 264.453 183.645 264.192 183.384C263.931 183.122 263.62 182.916 263.278 182.777C262.936 182.638 262.569 182.568 262.2 182.573V182.573Z" fill="black"/>
<path d="M284.262 182.485C276.208 182.485 270.167 188.618 270.167 195.977C270.167 203.511 275.857 209.468 283.999 209.468C292.141 209.468 298.094 203.336 298.094 195.977C298.094 188.443 292.316 182.485 284.262 182.485ZM284.174 204.299C283.107 204.284 282.053 204.055 281.076 203.626C280.098 203.196 279.216 202.576 278.482 201.8C277.748 201.024 277.176 200.11 276.8 199.11C276.425 198.11 276.253 197.044 276.295 195.977C276.295 191.421 279.447 187.829 284.174 187.829C288.727 187.829 292.053 191.596 292.053 196.152C292.053 200.708 288.902 204.299 284.174 204.299V204.299Z" fill="black"/>
<path d="M313.327 182.923H305.973C305.581 182.92 305.193 182.995 304.83 183.143C304.467 183.291 304.138 183.511 303.861 183.788C303.584 184.065 303.364 184.395 303.216 184.758C303.068 185.121 302.993 185.51 302.997 185.902V206.139C303.022 206.913 303.346 207.647 303.901 208.187C304.457 208.726 305.199 209.028 305.973 209.03H313.327C321.644 209.03 327.159 203.248 327.159 195.977C327.159 188.706 321.381 182.923 313.327 182.923ZM313.327 203.862H308.95V188.092H313.327C318.055 188.092 321.206 191.246 321.206 195.977C321.255 197.025 321.084 198.072 320.706 199.051C320.327 200.029 319.748 200.918 319.007 201.66C318.265 202.402 317.377 202.982 316.399 203.361C315.421 203.74 314.375 203.91 313.327 203.862V203.862Z" fill="black"/>
<path d="M349.921 203.949H338.015V198.342H347.908C348.574 198.32 349.207 198.046 349.679 197.574C350.15 197.102 350.425 196.468 350.446 195.802C350.425 195.135 350.15 194.501 349.679 194.029C349.207 193.558 348.574 193.283 347.908 193.261H338.015V187.829H349.658C350.332 187.829 350.978 187.562 351.454 187.085C351.93 186.609 352.197 185.963 352.197 185.289C352.197 184.615 351.93 183.969 351.454 183.492C350.978 183.016 350.332 182.748 349.658 182.748H335.213C334.822 182.745 334.433 182.819 334.07 182.968C333.708 183.116 333.378 183.335 333.101 183.613C332.824 183.89 332.605 184.22 332.456 184.583C332.308 184.946 332.233 185.335 332.237 185.727V206.139C332.296 206.917 332.643 207.644 333.209 208.179C333.776 208.714 334.522 209.017 335.301 209.03H349.921C350.588 209.008 351.221 208.734 351.692 208.262C352.164 207.79 352.438 207.157 352.46 206.49C352.438 205.823 352.164 205.189 351.692 204.717C351.221 204.246 350.588 203.971 349.921 203.949V203.949Z" fill="black"/>
<path d="M368.393 193.436C363.841 192.21 362.615 191.684 362.615 190.107C362.615 188.881 363.841 187.742 365.942 187.742C367.904 187.821 369.809 188.426 371.458 189.494C371.896 189.719 372.37 189.867 372.858 189.932C373.563 189.954 374.249 189.701 374.772 189.227C375.294 188.754 375.613 188.095 375.66 187.391C375.685 186.923 375.584 186.458 375.369 186.042C375.153 185.626 374.831 185.275 374.434 185.026C371.961 183.421 369.064 182.597 366.117 182.66C360.777 182.66 357.013 185.814 357.013 190.545C357.013 195.714 360.339 197.291 365.767 198.43C370.144 199.656 371.107 200.182 371.107 201.759C371.107 203.336 369.707 204.124 367.343 204.124C364.904 204.061 362.546 203.234 360.602 201.759C360.123 201.451 359.587 201.242 359.026 201.146C358.321 201.124 357.635 201.376 357.113 201.85C356.59 202.324 356.272 202.982 356.225 203.686C356.062 204.16 356.059 204.674 356.217 205.149C356.375 205.624 356.686 206.034 357.1 206.314C359.964 208.42 363.439 209.528 366.993 209.468C372.771 209.468 376.71 206.49 376.71 201.321C376.71 196.765 373.734 194.75 368.393 193.436Z" fill="black"/>
<path d="M401.136 201.584C400.498 201.573 399.877 201.79 399.385 202.197C398.608 202.907 397.696 203.451 396.702 203.798C395.709 204.144 394.656 204.285 393.607 204.212C389.054 204.212 386.078 200.445 386.078 195.889C386.078 191.334 389.229 187.742 393.607 187.742C395.53 187.731 397.404 188.346 398.947 189.494C399.476 189.83 400.075 190.04 400.698 190.107C401.067 190.112 401.433 190.043 401.776 189.903C402.118 189.764 402.428 189.558 402.689 189.296C402.95 189.035 403.157 188.724 403.296 188.382C403.435 188.04 403.504 187.673 403.499 187.304C403.418 186.384 402.978 185.534 402.274 184.938C400.085 183.361 397.546 182.398 393.519 182.398C391.726 182.343 389.94 182.653 388.269 183.309C386.599 183.966 385.08 184.955 383.803 186.216C382.526 187.477 381.518 188.985 380.841 190.648C380.163 192.311 379.83 194.094 379.862 195.889C380.387 203.511 386.165 209.468 393.694 209.468C397.106 209.633 400.444 208.436 402.974 206.139C403.28 205.902 403.527 205.596 403.694 205.246C403.861 204.896 403.945 204.512 403.937 204.124C403.926 203.771 403.844 203.424 403.696 203.104C403.548 202.783 403.337 202.496 403.076 202.258C402.814 202.021 402.508 201.839 402.174 201.723C401.841 201.607 401.488 201.56 401.136 201.584V201.584Z" fill="black"/>
<path d="M428.713 182.485C428.321 182.482 427.932 182.556 427.569 182.705C427.207 182.853 426.877 183.073 426.6 183.35C426.323 183.627 426.104 183.957 425.955 184.32C425.807 184.683 425.733 185.072 425.736 185.464V193.173H415.055V185.464C415.055 184.674 414.742 183.916 414.184 183.358C413.625 182.799 412.868 182.485 412.079 182.485C411.289 182.485 410.532 182.799 409.974 183.358C409.416 183.916 409.102 184.674 409.102 185.464V206.314C409.084 206.711 409.148 207.106 409.291 207.476C409.434 207.846 409.652 208.182 409.932 208.462C410.213 208.743 410.548 208.962 410.918 209.105C411.288 209.248 411.683 209.312 412.079 209.293C412.471 209.297 412.859 209.222 413.222 209.074C413.585 208.925 413.914 208.706 414.191 208.428C414.469 208.151 414.688 207.821 414.836 207.458C414.984 207.096 415.059 206.707 415.055 206.314V198.43H425.736V206.314C425.736 207.104 426.05 207.862 426.608 208.421C427.166 208.979 427.923 209.293 428.713 209.293C429.502 209.293 430.259 208.979 430.817 208.421C431.376 207.862 431.689 207.104 431.689 206.314V185.464C431.693 185.072 431.618 184.683 431.47 184.32C431.321 183.957 431.102 183.627 430.825 183.35C430.548 183.073 430.219 182.853 429.856 182.705C429.493 182.556 429.104 182.482 428.713 182.485V182.485Z" fill="black"/>
<path d="M450.337 182.485C442.195 182.485 436.242 188.618 436.242 195.977C436.268 197.793 436.654 199.586 437.38 201.251C438.105 202.917 439.154 204.421 440.465 205.677C441.777 206.932 443.326 207.914 445.02 208.565C446.715 209.216 448.522 209.523 450.337 209.468C458.478 209.468 464.169 203.336 464.169 195.977C464.169 188.443 458.391 182.485 450.337 182.485ZM450.249 204.299C448.107 204.224 446.081 203.309 444.607 201.752C443.133 200.195 442.33 198.121 442.37 195.977C442.37 191.421 445.522 187.829 450.249 187.829C454.801 187.829 458.128 191.596 458.128 196.152C458.128 200.708 454.976 204.299 450.249 204.299V204.299Z" fill="black"/>
<path d="M482.466 182.485C474.324 182.485 468.371 188.618 468.371 195.977C468.371 203.511 474.061 209.468 482.203 209.468C490.345 209.468 496.298 203.336 496.298 195.977C496.298 188.443 490.52 182.485 482.466 182.485ZM482.203 204.299C480.057 204.238 478.022 203.327 476.545 201.767C475.069 200.207 474.27 198.125 474.324 195.977C474.324 191.421 477.476 187.829 482.203 187.829C486.756 187.829 490.082 191.596 490.082 196.152C490.082 200.708 486.931 204.299 482.203 204.299V204.299Z" fill="black"/>
<path d="M517.659 203.949H506.979V185.727C506.979 184.937 506.665 184.179 506.107 183.621C505.549 183.062 504.792 182.748 504.002 182.748C503.213 182.748 502.456 183.062 501.897 183.621C501.339 184.179 501.026 184.937 501.026 185.727V206.139C501.09 206.93 501.45 207.667 502.035 208.204C502.619 208.74 503.384 209.035 504.177 209.03H517.659C518.326 209.008 518.959 208.734 519.43 208.262C519.902 207.79 520.176 207.157 520.198 206.49C520.176 205.823 519.902 205.189 519.43 204.717C518.959 204.246 518.326 203.971 517.659 203.949V203.949Z" fill="black"/>
<path d="M242.905 386.732H261.981C262.678 386.732 263.346 386.456 263.838 385.963C264.331 385.47 264.608 384.801 264.608 384.104V361.537C264.523 358.365 263.204 355.351 260.932 353.138C258.66 350.924 255.614 349.686 252.443 349.686C249.272 349.686 246.227 350.924 243.955 353.138C241.683 355.351 240.364 358.365 240.279 361.537V384.113C240.281 384.809 240.559 385.475 241.051 385.966C241.543 386.457 242.21 386.732 242.905 386.732V386.732ZM245.531 361.528C245.595 359.736 246.351 358.039 247.64 356.794C248.93 355.549 250.651 354.853 252.443 354.853C254.235 354.853 255.957 355.549 257.246 356.794C258.535 358.039 259.291 359.736 259.355 361.528V381.476H245.531V361.528Z" fill="black"/>
<path d="M280.699 386.732H299.775C300.471 386.732 301.14 386.456 301.632 385.963C302.125 385.47 302.401 384.801 302.401 384.104V361.537C302.316 358.365 300.997 355.351 298.725 353.138C296.453 350.924 293.408 349.686 290.237 349.686C287.066 349.686 284.02 350.924 281.748 353.138C279.476 355.351 278.157 358.365 278.072 361.537V384.113C278.075 384.809 278.352 385.475 278.845 385.966C279.337 386.457 280.004 386.732 280.699 386.732V386.732ZM283.325 361.528C283.292 360.599 283.446 359.673 283.779 358.805C284.111 357.937 284.615 357.145 285.26 356.476C285.905 355.807 286.678 355.275 287.533 354.911C288.388 354.548 289.308 354.361 290.237 354.361C291.166 354.361 292.085 354.548 292.94 354.911C293.795 355.275 294.568 355.807 295.213 356.476C295.859 357.145 296.362 357.937 296.695 358.805C297.027 359.673 297.182 360.599 297.149 361.528V381.476H283.325V361.528Z" fill="black"/>
<path d="M242.905 432.095H261.981C262.678 432.095 263.346 431.818 263.838 431.325C264.331 430.833 264.608 430.164 264.608 429.467V406.891C264.523 403.719 263.204 400.705 260.932 398.492C258.66 396.278 255.614 395.04 252.443 395.04C249.272 395.04 246.227 396.278 243.955 398.492C241.683 400.705 240.364 403.719 240.279 406.891V429.467C240.279 430.164 240.555 430.833 241.048 431.325C241.54 431.818 242.208 432.095 242.905 432.095V432.095ZM245.531 406.891C245.595 405.099 246.351 403.402 247.64 402.157C248.93 400.912 250.651 400.216 252.443 400.216C254.235 400.216 255.957 400.912 257.246 402.157C258.535 403.402 259.291 405.099 259.355 406.891V426.839H245.531V406.891Z" fill="black"/>
<path d="M280.699 432.095H299.775C300.471 432.095 301.14 431.818 301.632 431.325C302.125 430.833 302.401 430.164 302.401 429.467V406.891C302.316 403.719 300.997 400.705 298.725 398.492C296.453 396.278 293.408 395.04 290.237 395.04C287.066 395.04 284.02 396.278 281.748 398.492C279.476 400.705 278.157 403.719 278.072 406.891V429.467C278.072 430.164 278.349 430.833 278.841 431.325C279.334 431.818 280.002 432.095 280.699 432.095V432.095ZM283.325 406.891C283.389 405.099 284.145 403.402 285.434 402.157C286.723 400.912 288.445 400.216 290.237 400.216C292.028 400.216 293.75 400.912 295.039 402.157C296.329 403.402 297.085 405.099 297.149 406.891V426.839H283.325V406.891Z" fill="black"/>
<path d="M242.905 477.265H261.981C262.678 477.265 263.346 476.989 263.838 476.496C264.331 476.003 264.608 475.334 264.608 474.637V452.052C264.523 448.88 263.204 445.867 260.932 443.653C258.66 441.44 255.614 440.201 252.443 440.201C249.272 440.201 246.227 441.44 243.955 443.653C241.683 445.867 240.364 448.88 240.279 452.052V474.628C240.277 474.974 240.345 475.317 240.476 475.637C240.607 475.957 240.801 476.248 241.045 476.493C241.289 476.737 241.579 476.932 241.898 477.064C242.217 477.197 242.559 477.265 242.905 477.265ZM245.531 452.061C245.595 450.269 246.351 448.572 247.64 447.327C248.93 446.082 250.651 445.386 252.443 445.386C254.235 445.386 255.957 446.082 257.246 447.327C258.535 448.572 259.291 450.269 259.355 452.061V472.009H245.531V452.061Z" fill="black"/>
<path d="M280.699 477.265H299.775C300.472 477.265 301.14 476.989 301.632 476.496C302.125 476.003 302.401 475.334 302.401 474.637V452.052C302.316 448.88 300.997 445.867 298.725 443.653C296.453 441.44 293.408 440.201 290.237 440.201C287.066 440.201 284.02 441.44 281.748 443.653C279.476 445.867 278.157 448.88 278.072 452.052V474.628C278.071 474.974 278.138 475.317 278.27 475.637C278.401 475.957 278.594 476.248 278.838 476.493C279.082 476.737 279.372 476.932 279.692 477.064C280.011 477.197 280.353 477.265 280.699 477.265ZM283.325 452.061C283.389 450.269 284.145 448.572 285.434 447.327C286.723 446.082 288.445 445.386 290.237 445.386C292.028 445.386 293.75 446.082 295.04 447.327C296.329 448.572 297.085 450.269 297.149 452.061V472.009H283.325V452.061Z" fill="black"/>
<path d="M462.243 386.715H481.319C482.015 386.715 482.683 386.438 483.176 385.945C483.669 385.452 483.945 384.784 483.945 384.087V361.51C483.86 358.338 482.541 355.325 480.269 353.112C477.997 350.898 474.952 349.66 471.781 349.66C468.61 349.66 465.564 350.898 463.292 353.112C461.02 355.325 459.701 358.338 459.616 361.51V384.087C459.616 384.784 459.893 385.452 460.385 385.945C460.878 386.438 461.546 386.715 462.243 386.715V386.715ZM464.869 361.51C464.933 359.719 465.689 358.021 466.978 356.776C468.267 355.531 469.989 354.836 471.781 354.836C473.572 354.836 475.294 355.531 476.583 356.776C477.873 358.021 478.629 359.719 478.692 361.51V381.458H464.869V361.51Z" fill="black"/>
<path d="M500.019 386.715H519.095C519.792 386.715 520.46 386.438 520.952 385.945C521.445 385.452 521.721 384.784 521.721 384.087V361.51C521.721 358.282 520.44 355.186 518.158 352.903C515.877 350.62 512.783 349.337 509.557 349.337C506.331 349.337 503.236 350.62 500.955 352.903C498.674 355.186 497.392 358.282 497.392 361.51V384.087C497.392 384.784 497.669 385.452 498.162 385.945C498.654 386.438 499.322 386.715 500.019 386.715V386.715ZM502.645 361.51C502.645 359.676 503.373 357.917 504.67 356.62C505.966 355.322 507.724 354.594 509.557 354.594C511.39 354.594 513.148 355.322 514.444 356.62C515.74 357.917 516.469 359.676 516.469 361.51V381.458H502.645V361.51Z" fill="black"/>
<path d="M462.243 432.069H481.319C482.015 432.069 482.683 431.792 483.176 431.299C483.669 430.806 483.945 430.138 483.945 429.441V406.864C483.86 403.693 482.541 400.679 480.269 398.466C477.997 396.252 474.952 395.014 471.781 395.014C468.61 395.014 465.564 396.252 463.292 398.466C461.02 400.679 459.701 403.693 459.616 406.864V429.441C459.616 430.138 459.893 430.806 460.385 431.299C460.878 431.792 461.546 432.069 462.243 432.069V432.069ZM464.869 406.864C464.933 405.073 465.689 403.376 466.978 402.131C468.267 400.885 469.989 400.19 471.781 400.19C473.572 400.19 475.294 400.885 476.583 402.131C477.873 403.376 478.629 405.073 478.692 406.864V426.813H464.869V406.864Z" fill="black"/>
<path d="M500.019 432.069H519.095C519.792 432.069 520.46 431.792 520.952 431.299C521.445 430.806 521.721 430.138 521.721 429.441V406.864C521.721 403.636 520.44 400.54 518.158 398.257C515.877 395.974 512.783 394.691 509.557 394.691C506.331 394.691 503.236 395.974 500.955 398.257C498.674 400.54 497.392 403.636 497.392 406.864V429.441C497.392 430.138 497.669 430.806 498.162 431.299C498.654 431.792 499.322 432.069 500.019 432.069V432.069ZM502.645 406.864C502.645 405.03 503.373 403.271 504.67 401.974C505.966 400.677 507.724 399.948 509.557 399.948C511.39 399.948 513.148 400.677 514.444 401.974C515.74 403.271 516.469 405.03 516.469 406.864V426.813H502.645V406.864Z" fill="black"/>
<path d="M462.243 477.239H481.319C482.015 477.239 482.683 476.962 483.176 476.469C483.669 475.976 483.945 475.308 483.945 474.611V452.052C483.86 448.88 482.541 445.867 480.269 443.653C477.997 441.44 474.952 440.201 471.781 440.201C468.61 440.201 465.564 441.44 463.292 443.653C461.02 445.867 459.701 448.88 459.616 452.052V474.628C459.621 475.322 459.9 475.986 460.392 476.476C460.884 476.965 461.549 477.239 462.243 477.239ZM464.869 452.052C464.933 450.26 465.689 448.563 466.978 447.318C468.267 446.073 469.989 445.377 471.781 445.377C473.572 445.377 475.294 446.073 476.583 447.318C477.873 448.563 478.629 450.26 478.692 452.052V472H464.869V452.052Z" fill="black"/>
<path d="M500.019 477.239H519.095C519.792 477.239 520.46 476.962 520.952 476.469C521.445 475.977 521.721 475.308 521.721 474.611V452.052C521.721 448.824 520.44 445.727 518.158 443.445C515.877 441.162 512.783 439.879 509.557 439.879C506.331 439.879 503.236 441.162 500.955 443.445C498.674 445.727 497.392 448.824 497.392 452.052V474.629C497.397 475.323 497.676 475.987 498.168 476.476C498.66 476.965 499.325 477.239 500.019 477.239ZM502.645 452.035C502.645 450.2 503.373 448.441 504.67 447.144C505.966 445.847 507.724 445.118 509.557 445.118C511.39 445.118 513.148 445.847 514.444 447.144C515.74 448.441 516.469 450.2 516.469 452.035V471.983H502.645V452.035Z" fill="black"/>
<path d="M156.707 523.163C145.326 523.163 135.801 531.337 133.306 542.287C132.886 543.153 132.667 544.102 132.667 545.065V592.293C132.667 592.99 132.944 593.659 133.436 594.152C133.929 594.645 134.597 594.922 135.293 594.922H178.112C178.809 594.922 179.477 594.645 179.969 594.152C180.462 593.659 180.738 592.99 180.738 592.293V545.073C180.738 544.111 180.52 543.162 180.099 542.296C177.622 531.345 168.088 523.163 156.707 523.163ZM140.642 543.242C142.166 543.242 143.269 544.118 143.356 544.933H138.147C138.147 544.697 138.226 544.46 138.27 544.224C138.572 543.896 138.941 543.639 139.352 543.47C139.764 543.3 140.207 543.223 140.651 543.242H140.642ZM175.144 544.232C175.144 544.469 175.232 544.697 175.267 544.933H170.058C170.163 544.11 171.24 543.242 172.754 543.242C173.202 543.222 173.649 543.3 174.063 543.472C174.478 543.643 174.85 543.902 175.153 544.232H175.144ZM137.937 550.172H143.391V559.651H137.937V550.172ZM148.644 550.172H154.081V559.651H148.627L148.644 550.172ZM159.333 550.172H164.788V559.651H159.333V550.172ZM170.04 550.172H175.494V559.651H170.04V550.172ZM159.333 544.916C159.439 544.092 160.515 543.225 162.03 543.225C163.544 543.225 164.656 544.101 164.744 544.916H159.333ZM148.627 544.916C148.732 544.092 149.809 543.225 151.323 543.225C152.838 543.225 153.949 544.101 154.037 544.916H148.627ZM137.902 564.907H143.356V574.387H137.902V564.907ZM148.609 564.907H154.081V574.387H148.627L148.609 564.907ZM159.316 564.907H164.77V574.387H159.333L159.316 564.907ZM170.023 564.907H175.477V574.387H170.023V564.907ZM156.707 528.419C160.003 528.446 163.234 529.346 166.07 531.028C168.905 532.71 171.245 535.114 172.851 537.995H172.754C170.813 537.982 168.925 538.634 167.405 539.843C165.877 538.648 163.992 537.998 162.052 537.998C160.112 537.998 158.227 538.648 156.698 539.843C155.17 538.648 153.285 537.998 151.345 537.998C149.405 537.998 147.52 538.648 145.991 539.843C144.468 538.634 142.578 537.982 140.634 537.995H140.546C142.154 535.112 144.497 532.707 147.335 531.025C150.174 529.343 153.408 528.444 156.707 528.419V528.419ZM137.92 579.669H143.374V589.674H137.92V579.669ZM148.627 579.669H154.081V589.674H148.627V579.669ZM159.333 579.669H164.788V589.674H159.333V579.669ZM170.04 589.674V579.669H175.494V589.674H170.04Z" fill="black"/>
<path d="M605.275 523.163C593.894 523.163 584.378 531.345 581.883 542.296C581.463 543.162 581.244 544.111 581.244 545.073V592.302C581.244 592.999 581.521 593.668 582.013 594.161C582.506 594.654 583.174 594.93 583.87 594.93H626.689C627.386 594.93 628.054 594.654 628.546 594.161C629.039 593.668 629.315 592.999 629.315 592.302V545.073C629.315 544.111 629.096 543.162 628.676 542.296C626.181 531.345 616.648 523.163 605.275 523.163ZM589.228 543.242C590.751 543.242 591.854 544.118 591.925 544.933H586.724C586.724 544.697 586.803 544.46 586.847 544.232C587.149 543.903 587.52 543.644 587.933 543.473C588.345 543.302 588.791 543.224 589.237 543.242H589.228ZM623.713 544.224C623.756 544.46 623.8 544.688 623.835 544.933H618.635C618.74 544.11 619.817 543.242 621.349 543.242C621.792 543.225 622.234 543.305 622.644 543.475C623.054 543.646 623.421 543.905 623.721 544.232L623.713 544.224ZM586.505 550.172H591.96V559.651H586.505V550.172ZM597.212 550.172H602.666V559.651H597.212V550.172ZM607.919 550.172H613.373V559.651H607.919V550.172ZM618.626 550.172H624.08V559.651H618.626V550.172ZM607.945 544.916C608.051 544.092 609.127 543.225 610.659 543.225C612.191 543.225 613.286 544.101 613.356 544.916H607.945ZM597.239 544.916C597.344 544.092 598.42 543.225 599.952 543.225C601.485 543.225 602.579 544.101 602.649 544.916H597.239ZM586.514 564.908H591.968V574.387H586.514V564.908ZM597.221 564.908H602.675V574.387H597.221V564.908ZM607.928 564.908H613.382V574.387H607.928V564.908ZM618.635 564.908H624.089V574.387H618.635V564.908ZM605.302 528.402C608.599 528.429 611.831 529.329 614.668 531.01C617.505 532.692 619.846 535.096 621.454 537.977H621.366C619.422 537.965 617.532 538.617 616.008 539.826C614.48 538.63 612.595 537.98 610.655 537.98C608.715 537.98 606.83 538.63 605.302 539.826C603.773 538.63 601.888 537.98 599.948 537.98C598.008 537.98 596.123 538.63 594.595 539.826C593.075 538.617 591.187 537.965 589.246 537.977H589.149C590.756 535.102 593.094 532.703 595.926 531.025C598.758 529.346 601.984 528.447 605.275 528.419L605.302 528.402ZM586.523 579.652H591.977V589.657H586.523V579.652ZM597.23 579.652H602.684V589.657H597.23V579.652ZM607.937 579.652H613.391V589.657H607.937V579.652ZM618.644 589.657V579.669H624.098V589.674L618.644 589.657Z" fill="black"/>
<path d="M399.7 463.441C399.694 461.403 399.348 459.381 398.675 457.457C398.627 457.263 398.557 457.075 398.465 456.897C397.539 454.486 396.118 452.297 394.293 450.471C392.468 448.645 390.281 447.223 387.872 446.296C387.694 446.205 387.506 446.135 387.312 446.086C382.81 444.515 377.874 444.766 373.554 446.786C369.235 448.805 365.875 452.434 364.191 456.897C364.098 457.083 364.028 457.28 363.981 457.484C362.402 462.026 362.674 467.009 364.738 471.352C366.803 475.696 370.494 479.051 375.012 480.691C378.959 482.16 383.295 482.2 387.268 480.805C387.462 480.756 387.65 480.686 387.829 480.595C390.275 479.653 392.492 478.2 394.332 476.333C396.172 474.465 397.593 472.227 398.5 469.766V469.766C399.272 467.746 399.678 465.604 399.7 463.441V463.441ZM368.183 463.441C368.185 462.513 368.285 461.588 368.481 460.681H373.375V466.113H368.455C368.285 465.233 368.206 464.337 368.218 463.441H368.183ZM378.627 460.681H384.055V466.113H378.627V460.681ZM389.308 460.681H394.114C394.495 462.472 394.495 464.323 394.114 466.113H389.291L389.308 460.681ZM391.654 455.425H389.308V453.077C390.199 453.758 390.999 454.55 391.689 455.434L391.654 455.425ZM384.055 450.615V455.425H378.627V450.598C380.417 450.216 382.266 450.216 384.055 450.598V450.615ZM373.375 453.007V455.425H370.941C371.655 454.517 372.485 453.707 373.41 453.016L373.375 453.007ZM370.871 471.405H373.375V473.91C372.442 473.181 371.612 472.329 370.906 471.378L370.871 471.405ZM378.627 476.328V471.405H384.055V476.302C382.266 476.683 380.417 476.683 378.627 476.302V476.328ZM389.308 473.84V471.405H391.724C391.04 472.306 390.243 473.116 389.352 473.814L389.308 473.84Z" fill="black"/>
<path d="M298.365 697.457C302.681 696.318 303.819 696.581 304.493 697.685C305.167 698.789 304.493 700.418 302.445 701.557C300.389 702.766 297.987 703.247 295.625 702.924C295.057 702.886 294.494 703.047 294.031 703.379C293.471 703.779 293.074 704.368 292.913 705.038C292.752 705.707 292.838 706.413 293.156 707.024C293.345 707.413 293.635 707.745 293.995 707.985C294.355 708.226 294.773 708.365 295.205 708.39C298.67 708.728 302.157 708.014 305.211 706.34C309.991 703.607 311.803 699.06 309.308 694.732C307.032 690.86 303.626 690.86 298.391 692.227C294.075 693.366 292.937 693.366 292.027 691.999C291.571 690.86 292.027 689.493 293.848 688.355C295.533 687.5 297.415 687.107 299.302 687.216C299.785 687.169 300.252 687.013 300.667 686.76C301.228 686.36 301.625 685.771 301.786 685.102C301.947 684.432 301.861 683.727 301.543 683.116C301.288 682.734 300.951 682.413 300.558 682.177C300.164 681.941 299.723 681.794 299.267 681.749C296.391 681.558 293.528 682.275 291.081 683.799C286.537 686.532 284.953 690.851 287.212 694.951C289.724 699.27 293.366 698.824 298.365 697.457Z" fill="black"/>
<path d="M445.767 701.022C446.07 701.245 446.417 701.4 446.785 701.477C447.154 701.554 447.534 701.551 447.901 701.468C448.268 701.385 448.613 701.224 448.912 700.996C449.211 700.768 449.458 700.478 449.636 700.146L456.001 689.222L456.456 698.096C456.683 699.235 456.911 700.146 457.822 700.602C458.223 700.88 458.699 701.029 459.187 701.029C459.675 701.029 460.152 700.88 460.553 700.602L468.511 696.502L462.146 707.426C461.924 707.73 461.769 708.078 461.692 708.446C461.615 708.815 461.618 709.195 461.701 709.562C461.784 709.93 461.945 710.275 462.173 710.574C462.401 710.874 462.69 711.121 463.022 711.299C463.689 711.645 464.464 711.719 465.185 711.507C465.906 711.295 466.517 710.812 466.891 710.16L477.125 692.638C477.471 691.971 477.546 691.195 477.334 690.474C477.121 689.752 476.639 689.14 475.987 688.766L475.532 688.538C475.072 688.313 474.565 688.195 474.053 688.195C473.54 688.195 473.034 688.313 472.573 688.538L461.192 694.671L460.737 681.705C460.775 681.2 460.666 680.695 460.423 680.251C460.181 679.806 459.816 679.441 459.371 679.2L458.916 678.972C458.249 678.626 457.474 678.551 456.753 678.764C456.032 678.976 455.42 679.458 455.046 680.111L444.856 697.352C444.643 697.643 444.496 697.977 444.426 698.331C444.357 698.685 444.365 699.05 444.452 699.4C444.539 699.751 444.702 700.077 444.929 700.358C445.156 700.638 445.442 700.865 445.767 701.022V701.022Z" fill="black"/>
</g>
<defs>
<clipPath id="clip0_1887:35">
<rect width="762" height="876" fill="white"/>
</clipPath>
</defs>
</svg>